<?xml version="1.0" encoding="UTF-8"?>
<!DOCTYPE svg PUBLIC "-//W3C//DTD SVG 1.1//EN" "http://www.w3.org/Graphics/SVG/1.1/DTD/svg11.dtd">
<svg xmlns="http://www.w3.org/2000/svg" version="1.1" width="1024px" height="1024px" style="shape-rendering:geometricPrecision; text-rendering:geometricPrecision; image-rendering:optimizeQuality; fill-rule:evenodd; clip-rule:evenodd" xmlns:xlink="http://www.w3.org/1999/xlink">
<g><path style="opacity:1" fill="#f5f5f5" d="M -0.5,-0.5 C 340.833,-0.5 682.167,-0.5 1023.5,-0.5C 1023.5,340.833 1023.5,682.167 1023.5,1023.5C 682.167,1023.5 340.833,1023.5 -0.5,1023.5C -0.5,682.167 -0.5,340.833 -0.5,-0.5 Z"/></g>
<g><path style="opacity:1" fill="#121212" d="M 216.5,419.5 C 216.5,412.5 216.5,405.5 216.5,398.5C 211.5,398.5 206.5,398.5 201.5,398.5C 200.504,398.586 199.671,398.252 199,397.5C 198.223,394.571 198.39,391.737 199.5,389C 205.157,388.501 210.824,388.334 216.5,388.5C 216.5,385.167 216.5,381.833 216.5,378.5C 211.156,378.666 205.823,378.499 200.5,378C 198.297,375.24 197.964,372.24 199.5,369C 205.157,368.501 210.824,368.334 216.5,368.5C 215.32,360.681 218.653,356.348 226.5,355.5C 226.334,350.489 226.501,345.489 227,340.5C 230,339.167 233,339.167 236,340.5C 236.499,345.489 236.666,350.489 236.5,355.5C 240.167,355.5 243.833,355.5 247.5,355.5C 247.334,350.821 247.501,346.155 248,341.5C 250.553,339.271 253.386,338.938 256.5,340.5C 257.494,345.456 257.827,350.456 257.5,355.5C 260.833,355.5 264.167,355.5 267.5,355.5C 267.173,350.456 267.506,345.456 268.5,340.5C 271.291,338.96 273.791,339.294 276,341.5C 276.333,346.167 276.667,350.833 277,355.5C 283.167,357.667 287.333,361.833 289.5,368C 294.418,368.195 299.251,368.695 304,369.5C 304.777,372.429 304.61,375.263 303.5,378C 298.845,378.499 294.179,378.666 289.5,378.5C 289.5,381.833 289.5,385.167 289.5,388.5C 293.846,388.334 298.179,388.501 302.5,389C 304.703,391.76 305.036,394.76 303.5,398C 298.845,398.499 294.179,398.666 289.5,398.5C 293.397,423.601 282.73,433.935 257.5,429.5C 257.667,440.505 257.5,451.505 257,462.5C 250.167,469.333 243.333,476.167 236.5,483C 225.294,482.156 215.128,478.323 206,471.5C 202.423,474.373 198.589,476.873 194.5,479C 192.35,480.59 190.017,481.257 187.5,481C 179,472.5 170.5,464 162,455.5C 161.333,454.5 161.333,453.5 162,452.5C 165.794,447.751 168.961,442.584 171.5,437C 168.226,430.452 165.226,423.785 162.5,417C 156.241,415.025 150.075,412.859 144,410.5C 143.5,397.838 143.333,385.171 143.5,372.5C 150.655,371.063 157.321,368.563 163.5,365C 165.344,358.633 167.677,352.467 170.5,346.5C 167.683,341.537 164.85,336.537 162,331.5C 161.333,330.5 161.333,329.5 162,328.5C 170.713,319.285 179.88,310.618 189.5,302.5C 195.157,304.993 200.49,307.993 205.5,311.5C 212.344,307.441 219.678,304.775 227.5,303.5C 228.796,296.779 230.796,290.279 233.5,284C 245.5,283.333 257.5,283.333 269.5,284C 272.432,290.463 274.765,297.129 276.5,304C 283.881,305.905 291.048,308.405 298,311.5C 302.242,308.627 306.742,306.127 311.5,304C 313.5,303.333 315.5,303.333 317.5,304C 324.667,312.5 332.5,320.333 341,327.5C 341.667,329.167 341.667,330.833 341,332.5C 338.151,337.343 335.317,342.177 332.5,347C 335.722,353.335 338.556,359.835 341,366.5C 347.189,368.73 353.355,371.064 359.5,373.5C 360.499,386.149 360.832,398.816 360.5,411.5C 351.055,414.556 341.388,415.723 331.5,415C 328.241,413.789 325.408,411.956 323,409.5C 328.355,371.034 313.855,343.201 279.5,326C 242.03,313.268 212.197,323.101 190,355.5C 176.697,377.803 176.197,400.303 188.5,423C 191.802,421.792 195.302,420.959 199,420.5C 213.112,422.875 218.279,431.042 214.5,445C 224.061,453.114 235.061,457.948 247.5,459.5C 247.5,449.5 247.5,439.5 247.5,429.5C 239.826,429.666 232.159,429.5 224.5,429C 219.799,427.472 217.132,424.305 216.5,419.5 Z"/></g>
<g><path style="opacity:1" fill="#8e8f8e" d="M 201.5,398.5 C 206.5,398.5 211.5,398.5 216.5,398.5C 216.5,405.5 216.5,412.5 216.5,419.5C 215.509,413.021 215.176,406.354 215.5,399.5C 210.637,399.819 205.97,399.486 201.5,398.5 Z"/></g>
<g><path style="opacity:1" fill="#f3f3f3" d="M 235.5,371.5 C 246.838,371.333 258.172,371.5 269.5,372C 270.416,372.374 271.25,372.874 272,373.5C 273.626,385.737 273.959,398.071 273,410.5C 272.167,411.333 271.333,412.167 270.5,413C 258.5,413.667 246.5,413.667 234.5,413C 233.667,412.167 232.833,411.333 232,410.5C 231.333,398.5 231.333,386.5 232,374.5C 233.145,373.364 234.312,372.364 235.5,371.5 Z"/></g>
<g><path style="opacity:1" fill="#121212" d="M 238.5,378.5 C 247.833,378.5 257.167,378.5 266.5,378.5C 266.5,387.833 266.5,397.167 266.5,406.5C 257.167,406.5 247.833,406.5 238.5,406.5C 238.5,397.167 238.5,387.833 238.5,378.5 Z"/></g>
<g><path style="opacity:1" fill="#f4f4f4" d="M 194.5,428.5 C 202.225,426.416 206.558,429.25 207.5,437C 206.309,444.44 201.975,447.107 194.5,445C 193.667,444.167 192.833,443.333 192,442.5C 190.718,437.295 191.551,432.628 194.5,428.5 Z"/></g>
<g><path style="opacity:1" fill="#131313" d="M 300.5,420.5 C 304.846,420.334 309.179,420.501 313.5,421C 314.672,421.419 315.672,422.085 316.5,423C 312.667,426.833 308.833,430.667 305,434.5C 304.382,440.57 307.049,444.57 313,446.5C 317.588,443.456 322.088,440.29 326.5,437C 327.784,436.316 328.951,436.483 330,437.5C 331.36,458.394 321.86,466.561 301.5,462C 289.167,474.333 276.833,486.667 264.5,499C 254.725,502.228 248.392,498.895 245.5,489C 246.104,486.416 246.937,483.916 248,481.5C 260.395,468.436 273.395,456.103 287,444.5C 286.206,433.276 290.706,425.276 300.5,420.5 Z"/></g>
<g><path style="opacity:1" fill="#0a0a0a" d="M 613.5,510.5 C 645.167,510.5 676.833,510.5 708.5,510.5C 708.817,519.085 708.483,527.585 707.5,536C 686.169,536.5 664.836,536.667 643.5,536.5C 643.5,545.833 643.5,555.167 643.5,564.5C 661.5,564.5 679.5,564.5 697.5,564.5C 697.5,572.833 697.5,581.167 697.5,589.5C 679.5,589.5 661.5,589.5 643.5,589.5C 643.5,606.167 643.5,622.833 643.5,639.5C 633.584,639.819 623.75,639.486 614,638.5C 613.5,595.835 613.333,553.168 613.5,510.5 Z"/></g>
<g><path style="opacity:1" fill="#0b0c0c" d="M 526.5,560.5 C 525.883,560.389 525.383,560.056 525,559.5C 524.2,551.784 524.367,544.117 525.5,536.5C 547.161,535.578 568.827,534.911 590.5,534.5C 590.5,526.833 590.5,519.167 590.5,511.5C 559.833,511.5 529.167,511.5 498.5,511.5C 498.5,553.833 498.5,596.167 498.5,638.5C 523.672,638.169 548.672,638.502 573.5,639.5C 547.833,639.5 522.167,639.5 496.5,639.5C 496.5,596.5 496.5,553.5 496.5,510.5C 528.167,510.5 559.833,510.5 591.5,510.5C 591.5,519.167 591.5,527.833 591.5,536.5C 569.833,536.5 548.167,536.5 526.5,536.5C 526.5,544.5 526.5,552.5 526.5,560.5 Z"/></g>
<g><path style="opacity:1" fill="#020202" d="M 439.5,536.5 C 439.5,570.833 439.5,605.167 439.5,639.5C 429.833,639.5 420.167,639.5 410.5,639.5C 410.5,605.167 410.5,570.833 410.5,536.5C 397.5,536.5 384.5,536.5 371.5,536.5C 371.5,527.833 371.5,519.167 371.5,510.5C 406.833,510.5 442.167,510.5 477.5,510.5C 477.5,519.167 477.5,527.833 477.5,536.5C 464.833,536.5 452.167,536.5 439.5,536.5 Z"/></g>
<g><path style="opacity:1" fill="#121212" d="M 778.5,511.5 C 790.326,510.34 802.326,510.174 814.5,511C 821.874,524.248 829.374,537.415 837,550.5C 844.294,537.413 851.46,524.247 858.5,511C 869.833,510.333 881.167,510.333 892.5,511C 879.11,531.62 866.11,552.453 853.5,573.5C 866.526,595.716 880.193,617.549 894.5,639C 882.486,639.833 870.486,639.666 858.5,638.5C 851.172,624.507 843.339,610.841 835,597.5C 827.04,611.252 819.207,625.086 811.5,639C 800.152,639.832 788.819,639.666 777.5,638.5C 791.084,617.001 804.417,595.334 817.5,573.5C 804.475,552.769 791.475,532.102 778.5,511.5 Z"/></g>
<g><path style="opacity:1" fill="#121212" d="M 244.5,510.5 C 255.853,510.168 267.186,510.501 278.5,511.5C 286.306,528.445 294.639,545.112 303.5,561.5C 311.405,544.616 319.405,527.783 327.5,511C 338.5,510.333 349.5,510.333 360.5,511C 346.46,536.914 332.294,562.747 318,588.5C 317.667,605.167 317.333,621.833 317,638.5C 307.25,639.486 297.416,639.819 287.5,639.5C 287.667,622.163 287.5,604.83 287,587.5C 272.576,561.926 258.41,536.26 244.5,510.5 Z"/></g>
<g><path style="opacity:1" fill="#121312" d="M 439.5,536.5 C 438.502,569.996 438.168,603.663 438.5,637.5C 429.5,637.5 420.5,637.5 411.5,637.5C 411.5,603.5 411.5,569.5 411.5,535.5C 401.834,535.106 392.167,534.773 382.5,534.5C 382.762,533.022 382.429,531.689 381.5,530.5C 381.094,531.557 381.094,532.891 381.5,534.5C 378.751,534.274 376.084,534.607 373.5,535.5C 372.502,527.528 372.169,519.528 372.5,511.5C 407.167,511.5 441.833,511.5 476.5,511.5C 476.5,519.167 476.5,526.833 476.5,534.5C 464.751,534.617 453.084,534.617 441.5,534.5C 440.478,534.855 439.811,535.522 439.5,536.5 Z"/></g>
<g><path style="opacity:1" fill="#121212" d="M 615.5,511.5 C 645.833,511.5 676.167,511.5 706.5,511.5C 706.5,519.5 706.5,527.5 706.5,535.5C 699.159,535.666 691.826,535.5 684.5,535C 682.567,534.749 680.734,534.249 679,533.5C 669.139,533.778 659.139,533.778 649,533.5C 647.601,534.227 646.101,534.727 644.5,535C 642.54,544.907 641.873,555.074 642.5,565.5C 660.5,565.5 678.5,565.5 696.5,565.5C 696.5,573.167 696.5,580.833 696.5,588.5C 678.259,588.027 660.259,588.027 642.5,588.5C 642.5,604.833 642.5,621.167 642.5,637.5C 633.5,637.5 624.5,637.5 615.5,637.5C 615.5,595.5 615.5,553.5 615.5,511.5 Z"/></g>
<g><path style="opacity:1" fill="#131313" d="M 526.5,560.5 C 544.993,561.497 563.659,561.83 582.5,561.5C 582.5,570.5 582.5,579.5 582.5,588.5C 563.833,588.5 545.167,588.5 526.5,588.5C 526.5,596.833 526.5,605.167 526.5,613.5C 548.167,613.5 569.833,613.5 591.5,613.5C 591.5,622.167 591.5,630.833 591.5,639.5C 585.5,639.5 579.5,639.5 573.5,639.5C 548.672,638.502 523.672,638.169 498.5,638.5C 498.5,596.167 498.5,553.833 498.5,511.5C 529.167,511.5 559.833,511.5 590.5,511.5C 590.5,519.167 590.5,526.833 590.5,534.5C 568.827,534.911 547.161,535.578 525.5,536.5C 524.367,544.117 524.2,551.784 525,559.5C 525.383,560.056 525.883,560.389 526.5,560.5 Z"/></g>
<g><path style="opacity:1" fill="#121212" d="M 727.5,510.5 C 737.665,510.027 747.665,510.527 757.5,512C 756.503,554.428 756.17,596.928 756.5,639.5C 746.833,639.5 737.167,639.5 727.5,639.5C 727.5,596.5 727.5,553.5 727.5,510.5 Z"/></g>
<g><path style="opacity:1" fill="#141414" d="M 139.5,509.5 C 161.503,509.333 183.503,509.5 205.5,510C 227.458,511.791 239.125,523.624 240.5,545.5C 240.82,555.859 237.487,564.859 230.5,572.5C 245.366,586.831 248.533,603.497 240,622.5C 233.32,632.76 223.82,638.26 211.5,639C 187.169,639.5 162.836,639.667 138.5,639.5C 138.172,596.094 138.506,552.761 139.5,509.5 Z"/></g>
<g><path style="opacity:1" fill="#f5f5f5" d="M 168.5,587.5 C 181.879,587.119 195.212,587.619 208.5,589C 214.659,594.312 216.159,600.812 213,608.5C 211.363,610.81 209.196,612.31 206.5,613C 193.838,613.5 181.171,613.667 168.5,613.5C 168.5,604.833 168.5,596.167 168.5,587.5 Z"/></g>
<g><path style="opacity:1" fill="#f1f2f2" d="M 168.5,536.5 C 179.838,536.333 191.172,536.5 202.5,537C 211.673,541.522 213.84,548.355 209,557.5C 207.421,559.041 205.587,560.208 203.5,561C 191.896,562.412 180.229,562.912 168.5,562.5C 168.5,553.833 168.5,545.167 168.5,536.5 Z"/></g>
<g><path style="opacity:1" fill="#141414" d="M 738.5,675.5 C 743.214,675.173 747.88,675.507 752.5,676.5C 759.97,694.58 766.637,712.913 772.5,731.5C 768.818,731.665 765.152,731.499 761.5,731C 759.562,727.791 757.895,724.457 756.5,721C 748.812,720.169 741.145,720.335 733.5,721.5C 732.167,724.5 730.833,727.5 729.5,730.5C 725.167,731.833 720.833,731.833 716.5,730.5C 724.231,712.302 731.565,693.969 738.5,675.5 Z"/></g>
<g><path style="opacity:1" fill="#121212" d="M 224.5,675.5 C 228.884,675.174 233.217,675.508 237.5,676.5C 245.417,688.665 253.084,700.999 260.5,713.5C 260.534,701.444 260.534,689.11 260.5,676.5C 264.5,676.5 268.5,676.5 272.5,676.5C 272.5,694.833 272.5,713.167 272.5,731.5C 268.154,731.666 263.821,731.499 259.5,731C 251.667,719.167 243.833,707.333 236,695.5C 235.5,707.495 235.333,719.495 235.5,731.5C 231.833,731.5 228.167,731.5 224.5,731.5C 224.5,712.833 224.5,694.167 224.5,675.5 Z"/></g>
<g><path style="opacity:1" fill="#040405" d="M 801.5,675.5 C 805.167,675.5 808.833,675.5 812.5,675.5C 812.5,690.833 812.5,706.167 812.5,721.5C 821.5,721.5 830.5,721.5 839.5,721.5C 839.5,724.833 839.5,728.167 839.5,731.5C 826.833,731.5 814.167,731.5 801.5,731.5C 801.5,712.833 801.5,694.167 801.5,675.5 Z"/></g>
<g><path style="opacity:1" fill="#121212" d="M 530.5,675.5 C 545.167,675.5 559.833,675.5 574.5,675.5C 574.5,678.833 574.5,682.167 574.5,685.5C 569.167,685.5 563.833,685.5 558.5,685.5C 558.5,700.833 558.5,716.167 558.5,731.5C 554.5,731.5 550.5,731.5 546.5,731.5C 546.5,716.167 546.5,700.833 546.5,685.5C 541.167,685.5 535.833,685.5 530.5,685.5C 530.5,682.167 530.5,678.833 530.5,675.5 Z"/></g>
<g><path style="opacity:1" fill="#141414" d="M 306.5,675.5 C 315.506,675.334 324.506,675.5 333.5,676C 355.78,682.821 362.28,696.988 353,718.5C 348.357,725.461 341.857,729.628 333.5,731C 324.506,731.5 315.506,731.666 306.5,731.5C 306.5,712.833 306.5,694.167 306.5,675.5 Z"/></g>
<g><path style="opacity:1" fill="#f4f4f4" d="M 317.5,685.5 C 327.493,683.784 335.993,686.45 343,693.5C 348.764,707.351 344.597,716.518 330.5,721C 326.179,721.499 321.846,721.666 317.5,721.5C 317.5,709.5 317.5,697.5 317.5,685.5 Z"/></g>
<g><path style="opacity:1" fill="#f4f4f4" d="M 744.5,688.5 C 747.659,695.272 750.659,702.272 753.5,709.5C 748.167,710.833 742.833,710.833 737.5,709.5C 740.704,702.766 743.037,695.766 744.5,688.5 Z"/></g>
<g><path style="opacity:1" fill="#161616" d="M 803.5,676.5 C 806.167,676.5 808.833,676.5 811.5,676.5C 811.5,691.833 811.5,707.167 811.5,722.5C 820.167,722.5 828.833,722.5 837.5,722.5C 837.5,724.833 837.5,727.167 837.5,729.5C 826.167,729.5 814.833,729.5 803.5,729.5C 803.5,711.833 803.5,694.167 803.5,676.5 Z"/></g>
<g><path style="opacity:1" fill="#161616" d="M 178.5,675.5 C 182.5,675.5 186.5,675.5 190.5,675.5C 190.5,694.167 190.5,712.833 190.5,731.5C 186.5,731.5 182.5,731.5 178.5,731.5C 178.5,712.833 178.5,694.167 178.5,675.5 Z"/></g>
<g><path style="opacity:1" fill="#151515" d="M 603.5,676.5 C 614.172,676.333 624.839,676.5 635.5,677C 641.562,678.062 645.395,681.562 647,687.5C 647.667,691.5 647.667,695.5 647,699.5C 645.809,705.181 642.309,708.181 636.5,708.5C 640.288,716.064 644.621,723.397 649.5,730.5C 644.95,731.8 640.45,731.8 636,730.5C 632.041,724.082 628.207,717.582 624.5,711C 621.518,710.502 618.518,710.335 615.5,710.5C 615.5,717.5 615.5,724.5 615.5,731.5C 611.5,731.5 607.5,731.5 603.5,731.5C 603.5,713.167 603.5,694.833 603.5,676.5 Z"/></g>
<g><path style="opacity:1" fill="#eeeeee" d="M 615.5,685.5 C 620.844,685.334 626.177,685.501 631.5,686C 634.683,687.018 636.016,689.185 635.5,692.5C 635.881,695.325 634.881,697.491 632.5,699C 626.928,700.351 621.262,700.851 615.5,700.5C 615.5,695.5 615.5,690.5 615.5,685.5 Z"/></g>
<g><path style="opacity:1" fill="#151515" d="M 531.5,677.5 C 544.99,676.504 558.656,676.171 572.5,676.5C 572.5,679.167 572.5,681.833 572.5,684.5C 567.238,684.195 562.072,684.529 557,685.5C 556.5,700.163 556.333,714.83 556.5,729.5C 553.833,729.5 551.167,729.5 548.5,729.5C 548.5,714.5 548.5,699.5 548.5,684.5C 542.833,684.5 537.167,684.5 531.5,684.5C 531.715,681.856 531.715,679.523 531.5,677.5 Z"/></g>
<g><path style="opacity:1" fill="#131313" d="M 678.5,675.5 C 682.167,675.5 685.833,675.5 689.5,675.5C 689.5,694.167 689.5,712.833 689.5,731.5C 685.833,731.5 682.167,731.5 678.5,731.5C 678.5,712.833 678.5,694.167 678.5,675.5 Z"/></g>
<g><path style="opacity:1" fill="#141414" d="M 476.5,674.5 C 486.767,673.312 495.767,675.978 503.5,682.5C 501.466,685.369 498.966,687.702 496,689.5C 491.991,686.582 487.491,684.915 482.5,684.5C 475.425,685.501 473.759,689.001 477.5,695C 484.578,697.47 491.578,700.137 498.5,703C 505.043,709.598 506.209,717.098 502,725.5C 494.739,732.049 486.239,734.216 476.5,732C 470.78,730.64 465.78,727.974 461.5,724C 463.667,721.167 465.833,718.333 468,715.5C 474.426,721.867 481.926,723.7 490.5,721C 493.167,717.667 493.167,714.333 490.5,711C 483.449,708.486 476.449,705.82 469.5,703C 460.222,694.837 460.222,686.504 469.5,678C 471.925,676.787 474.259,675.621 476.5,674.5 Z"/></g>
<g><path style="opacity:1" fill="#181818" d="M 385.5,675.5 C 389.5,675.5 393.5,675.5 397.5,675.5C 397.333,688.171 397.5,700.838 398,713.5C 401.194,721.842 407.027,724.342 415.5,721C 417.81,719.363 419.31,717.196 420,714.5C 420.5,701.504 420.667,688.504 420.5,675.5C 424.5,675.5 428.5,675.5 432.5,675.5C 432.667,688.171 432.5,700.838 432,713.5C 429.606,726.892 421.606,733.226 408,732.5C 395.876,732.377 388.542,726.377 386,714.5C 385.5,701.504 385.333,688.504 385.5,675.5 Z"/></g>
</svg>
